<svg width="128" height="128" viewBox="0 0 128 128" fill="none" xmlns="http://www.w3.org/2000/svg">
<path d="M0 48C0 21.4903 21.4903 0 48 0H128V80C128 106.51 106.51 128 80 128H0V48Z" fill="#0D6EFD"/>
<path fill-rule="evenodd" clip-rule="evenodd" d="M81.5124 39.6757C79.9196 39.6757 78.4876 41.0334 78.4876 42.8865C78.4876 43.4282 78.61 43.9276 78.8229 44.3631C78.8438 44.3973 78.8644 44.4319 78.8847 44.4668C78.9289 44.5429 78.9712 44.6196 79.0117 44.6969C79.5697 45.5586 80.5092 46.0973 81.5124 46.0973C83.1053 46.0973 84.5373 44.7395 84.5373 42.8865C84.5373 41.0334 83.1053 39.6757 81.5124 39.6757ZM72.8998 54.8604C75.2976 56.6869 78.2705 57.773 81.5124 57.773C89.5914 57.773 96 51.0283 96 42.8865C96 34.7447 89.5914 28 81.5124 28C73.4334 28 67.0249 34.7447 67.0249 42.8865C67.0249 43.5222 67.0639 44.1493 67.1398 44.7654L55.1002 52.0261C52.7024 50.1996 49.7295 49.1135 46.4876 49.1135C38.4086 49.1135 32 55.8582 32 64C32 72.1418 38.4086 78.8865 46.4876 78.8865C49.7306 78.8865 52.7045 77.7997 55.1027 75.972L67.1414 83.2215C67.0645 83.8418 67.0249 84.4733 67.0249 85.1135C67.0249 93.2553 73.4334 100 81.5124 100C89.5914 100 96 93.2553 96 85.1135C96 76.9717 89.5914 70.227 81.5124 70.227C78.2752 70.227 75.3061 71.31 72.9101 73.1318L60.8606 65.8757C60.9362 65.2607 60.9751 64.6346 60.9751 64C60.9751 63.3643 60.9361 62.7372 60.8602 62.1211L72.8998 54.8604ZM49.1772 65.4764C49.3901 65.0409 49.5124 64.5416 49.5124 64C49.5124 63.4585 49.3902 62.9593 49.1773 62.5239C49.1564 62.4895 49.1357 62.4548 49.1153 62.4197C49.071 62.3435 49.0286 62.2666 48.988 62.1892C48.43 61.3277 47.4907 60.7892 46.4876 60.7892C44.8947 60.7892 43.4627 62.147 43.4627 64C43.4627 65.853 44.8947 67.2108 46.4876 67.2108C47.4908 67.2108 48.4302 66.6722 48.9882 65.8105C49.0281 65.7343 49.0699 65.6586 49.1134 65.5836C49.1344 65.5475 49.1556 65.5118 49.1772 65.4764ZM78.7477 83.8023C78.8058 83.7136 78.8618 83.6229 78.9157 83.53C78.9891 83.4036 79.0573 83.2755 79.1203 83.146C79.6869 82.3764 80.5716 81.9027 81.5124 81.9027C83.1053 81.9027 84.5373 83.2605 84.5373 85.1135C84.5373 86.9666 83.1053 88.3243 81.5124 88.3243C79.9196 88.3243 78.4876 86.9666 78.4876 85.1135C78.4876 84.6392 78.5814 84.1973 78.7477 83.8023Z" fill="white"/>
</svg>
