<svg width="188" height="48" fill="none" xmlns="http://www.w3.org/2000/svg"><path d="M0 18C0 8 8 0 18 0h30v30c0 10-8 18-18 18H0V18Z" fill="#0D6EFD"/><path fill-rule="evenodd" clip-rule="evenodd" d="m31 15-2 1a1 1 0 0 0 1 1h1l1-1-1-1Zm-4 6 4 1c3 0 5-3 5-6s-2-5-5-5a6 6 0 0 0-6 6l-4 3-4-2c-3 0-5 3-5 6s2 6 5 6l4-2 4 3v1c0 3 3 6 6 6s5-3 5-6-2-6-5-6l-4 1-4-2a6 6 0 0 0 0-2l4-2Zm-9 4a1 1 0 0 0 0-2h-1l-1 1 1 1a1 1 0 0 0 1 0Zm12 6h1l1 1-1 1-2-1 1-1Z" fill="#fff"/><path d="m71 36-4-1-2-2-1-3 1-3 3-2h8v3h-4l-1 1-1 1 1 1 1 1 2-1 1-1 1-1v-5l-1-2h-4l-3 1h-1l-1-1-1-1 1-2 1-1a16 16 0 0 1 11 0l3 3 1 4v8l-1 2-2 1-3-1v-3a4 4 0 0 1-3 4h-2Zm16 0-2-1-1-2V21l1-3 2-1 2 1 1 3v1l2-3 4-2 1 1 1 2-1 2-2 1h-1l-3 1v9l-1 2-3 1Zm24 0-4-1c-2 0-3-1-3-2l-1-5v-6h-3l-1-2 1-2h3v-3l1-2 2-1 3 1v5h5l1 2-1 2h-5v6l1 2 2 1h3v3l-1 2h-3Zm9 0-2-1-1-2V21l1-3 2-1 2 1 1 3v2-2l2-3 4-1 3 1 2 3h-1l3-3 4-1 3 1c1 1 2 1 2 3l1 4v8l-1 2-2 1-3-1-1-2V23l-2-1-2 1v10l-1 2-3 1-2-1-1-2V23l-2-1-2 1-1 3v7c0 2-1 3-3 3Zm36 0-4-1-2-2-1-5v-7l1-3 2-1 3 1 1 3v9l2 1 2-1 1-2v-7l1-3 2-1 2 1 1 3v12c0 2-1 3-3 3l-2-1-1-2v-2l1 1-3 3-3 1Zm17 0-2-1v-4l6-6v3l-5-6-1-2 1-2 2-1a4 4 0 0 1 3 2l3 4h-2l4-4 1-1 2-1 2 1 1 2-1 2-5 6v-3l5 6 1 3-1 1-2 1h-2l-1-2-4-5h2l-3 5-2 1-2 1Z" fill="#0D6EFD"/></svg>