<svg width="188" height="48" viewBox="0 0 188 48" fill="none" xmlns="http://www.w3.org/2000/svg">
<path d="M0 18C0 8.05888 8.05888 0 18 0H48V30C48 39.9411 39.9411 48 30 48H0V18Z" fill="#0D6EFD"/>
<path fill-rule="evenodd" clip-rule="evenodd" d="M30.5672 14.8784C29.9698 14.8784 29.4328 15.3875 29.4328 16.0824C29.4328 16.2856 29.4787 16.4728 29.5586 16.6361C29.5664 16.649 29.5741 16.662 29.5817 16.6751C29.5983 16.7036 29.6142 16.7324 29.6294 16.7613C29.8386 17.0845 30.1909 17.2865 30.5672 17.2865C31.1645 17.2865 31.7015 16.7773 31.7015 16.0824C31.7015 15.3875 31.1645 14.8784 30.5672 14.8784ZM27.3374 20.5726C28.2366 21.2576 29.3515 21.6649 30.5672 21.6649C33.5968 21.6649 36 19.1356 36 16.0824C36 13.0293 33.5968 10.5 30.5672 10.5C27.5375 10.5 25.1343 13.0293 25.1343 16.0824C25.1343 16.3208 25.149 16.556 25.1774 16.787L20.6626 19.5098C19.7634 18.8248 18.6486 18.4176 17.4328 18.4176C14.4032 18.4176 12 20.9468 12 24C12 27.0532 14.4032 29.5824 17.4328 29.5824C18.649 29.5824 19.7642 29.1749 20.6635 28.4895L25.178 31.208C25.1492 31.4407 25.1343 31.6775 25.1343 31.9176C25.1343 34.9707 27.5375 37.5 30.5672 37.5C33.5968 37.5 36 34.9707 36 31.9176C36 28.8644 33.5968 26.3351 30.5672 26.3351C29.3532 26.3351 28.2398 26.7412 27.3413 27.4244L22.8227 24.7034C22.8511 24.4728 22.8657 24.238 22.8657 24C22.8657 23.7616 22.851 23.5264 22.8226 23.2954L27.3374 20.5726ZM18.4414 24.5536C18.5213 24.3903 18.5672 24.2031 18.5672 24C18.5672 23.7969 18.5213 23.6097 18.4415 23.4465C18.4336 23.4336 18.4259 23.4205 18.4182 23.4074C18.4016 23.3788 18.3857 23.35 18.3705 23.321C18.1612 22.9979 17.809 22.7959 17.4328 22.7959C16.8355 22.7959 16.2985 23.3051 16.2985 24C16.2985 24.6949 16.8355 25.2041 17.4328 25.2041C17.809 25.2041 18.1613 25.0021 18.3706 24.6789C18.3856 24.6504 18.4012 24.622 18.4175 24.5938C18.4254 24.5803 18.4334 24.5669 18.4414 24.5536ZM29.5304 31.4259C29.5522 31.3926 29.5732 31.3586 29.5934 31.3238C29.6209 31.2763 29.6465 31.2283 29.6701 31.1797C29.8826 30.8911 30.2144 30.7135 30.5672 30.7135C31.1645 30.7135 31.7015 31.2227 31.7015 31.9176C31.7015 32.6125 31.1645 33.1216 30.5672 33.1216C29.9698 33.1216 29.4328 32.6125 29.4328 31.9176C29.4328 31.7397 29.468 31.574 29.5304 31.4259Z" fill="white"/>
<path d="M71.0038 36C69.6248 36 68.4031 35.7435 67.3386 35.2305C66.2983 34.7176 65.4758 34.0214 64.8709 33.142C64.2903 32.2382 64 31.2122 64 30.0641C64 28.745 64.3387 27.7069 65.0161 26.9496C65.6935 26.1924 66.7822 25.655 68.2821 25.3374C69.7821 24.9954 71.778 24.8244 74.2698 24.8244H76.2657V27.9023H74.2698C73.3263 27.9023 72.54 27.9756 71.911 28.1221C71.3062 28.2443 70.8586 28.4519 70.5683 28.745C70.278 29.0137 70.1329 29.3679 70.1329 29.8076C70.1329 30.3695 70.3264 30.8336 70.7135 31.2C71.1248 31.5664 71.7054 31.7496 72.4554 31.7496C73.0602 31.7496 73.5924 31.6153 74.0521 31.3466C74.5359 31.0779 74.923 30.7115 75.2133 30.2473C75.5037 29.7588 75.6488 29.1969 75.6488 28.5618V24.3115C75.6488 23.4321 75.419 22.8092 74.9593 22.4427C74.5239 22.0763 73.7618 21.8931 72.6731 21.8931C72.0925 21.8931 71.4393 21.9664 70.7135 22.113C69.9877 22.2351 69.1772 22.4672 68.2821 22.8092C67.6289 23.0534 67.0725 23.0901 66.6128 22.9191C66.1532 22.7481 65.7903 22.455 65.5241 22.0397C65.2822 21.6244 65.1613 21.1725 65.1613 20.684C65.1854 20.1954 65.3427 19.7313 65.633 19.2916C65.9475 18.8519 66.4193 18.5099 67.0483 18.2656C68.2095 17.826 69.274 17.5328 70.2417 17.3863C71.2336 17.2397 72.1409 17.1664 72.9634 17.1664C74.9472 17.1664 76.5802 17.4595 77.8625 18.0458C79.1689 18.6076 80.1366 19.487 80.7656 20.684C81.4188 21.8565 81.7454 23.371 81.7454 25.2275V32.629C81.7454 33.7038 81.4914 34.5221 80.9833 35.084C80.4753 35.6458 79.7374 35.9267 78.7697 35.9267C77.7778 35.9267 77.0157 35.6458 76.4835 35.084C75.9754 34.5221 75.7214 33.7038 75.7214 32.629V31.6763L75.9391 32.1893C75.8182 32.971 75.5399 33.6427 75.1045 34.2046C74.669 34.7664 74.1005 35.2061 73.3989 35.5237C72.6973 35.8412 71.8989 36 71.0038 36Z" fill="#0D6EFD"/>
<path d="M87.2946 36C86.2301 36 85.4076 35.7191 84.8269 35.1573C84.2705 34.5954 83.9923 33.7771 83.9923 32.7023V20.574C83.9923 19.5237 84.2584 18.7176 84.7907 18.1557C85.3471 17.5939 86.1334 17.313 87.1494 17.313C88.1655 17.313 88.9397 17.5939 89.472 18.1557C90.0042 18.7176 90.2703 19.5237 90.2703 20.574V22.0763H89.9074C90.1493 20.6107 90.7663 19.4504 91.7582 18.5954C92.7743 17.7405 94.0323 17.2885 95.5322 17.2397C96.2338 17.2153 96.754 17.3985 97.0927 17.7893C97.4556 18.1557 97.6491 18.8519 97.6733 19.8779C97.6733 20.7573 97.4919 21.4534 97.129 21.9664C96.7661 22.4794 96.0766 22.7847 95.0605 22.8824L94.2258 22.9557C92.9436 23.0779 92.0122 23.4443 91.4316 24.055C90.8509 24.6412 90.5606 25.5206 90.5606 26.6931V32.7023C90.5606 33.7771 90.2824 34.5954 89.726 35.1573C89.1695 35.7191 88.3591 36 87.2946 36Z" fill="#0D6EFD"/>
<path d="M111.004 36C109.189 36 107.689 35.7191 106.504 35.1573C105.342 34.5954 104.471 33.7527 103.891 32.629C103.31 31.4809 103.02 30.0519 103.02 28.342V22.3695H101.786C101.012 22.3695 100.407 22.1618 99.9716 21.7466C99.5603 21.3313 99.3547 20.7328 99.3547 19.9511C99.3547 19.1695 99.5603 18.5832 99.9716 18.1924C100.407 17.7771 101.012 17.5695 101.786 17.5695H103.02V15.2977C103.02 14.2229 103.298 13.4046 103.855 12.8427C104.411 12.2809 105.209 12 106.25 12C107.29 12 108.088 12.2809 108.645 12.8427C109.201 13.4046 109.479 14.2229 109.479 15.2977V17.5695H112.455C113.253 17.5695 113.858 17.7771 114.27 18.1924C114.705 18.5832 114.923 19.1695 114.923 19.9511C114.923 20.7328 114.705 21.3313 114.27 21.7466C113.858 22.1618 113.253 22.3695 112.455 22.3695H109.479V28.1221C109.479 29.026 109.685 29.6977 110.096 30.1374C110.532 30.5527 111.209 30.7603 112.128 30.7603C112.467 30.7603 112.794 30.7237 113.108 30.6504C113.423 30.5771 113.713 30.5405 113.979 30.5405C114.366 30.516 114.681 30.6382 114.923 30.9069C115.165 31.1511 115.286 31.7252 115.286 32.629C115.286 33.3618 115.177 33.9847 114.959 34.4977C114.741 34.9863 114.354 35.3405 113.798 35.5603C113.459 35.6824 112.999 35.7802 112.419 35.8534C111.838 35.9511 111.366 36 111.004 36Z" fill="#0D6EFD"/>
<path d="M120.068 35.9267C119.052 35.9267 118.265 35.6458 117.709 35.084C117.153 34.5221 116.874 33.7038 116.874 32.629V20.5008C116.874 19.4504 117.141 18.6443 117.673 18.0824C118.229 17.5206 119.015 17.2397 120.032 17.2397C121.048 17.2397 121.822 17.5206 122.354 18.0824C122.886 18.6443 123.152 19.4504 123.152 20.5008V22.516L122.753 20.7206C123.261 19.6458 124.011 18.7908 125.003 18.1557C126.019 17.4962 127.217 17.1664 128.596 17.1664C129.902 17.1664 131.015 17.484 131.934 18.1191C132.878 18.7542 133.555 19.7191 133.967 21.0137H133.459C134.015 19.8168 134.85 18.8763 135.962 18.1924C137.075 17.5084 138.309 17.1664 139.664 17.1664C141.067 17.1664 142.216 17.4473 143.111 18.0092C144.007 18.5466 144.672 19.4015 145.107 20.574C145.567 21.7221 145.797 23.1756 145.797 24.9344V32.629C145.797 33.7038 145.507 34.5221 144.926 35.084C144.369 35.6458 143.571 35.9267 142.531 35.9267C141.515 35.9267 140.728 35.6458 140.172 35.084C139.616 34.5221 139.337 33.7038 139.337 32.629V25.1176C139.337 24.0672 139.18 23.3099 138.866 22.8458C138.551 22.3817 138.031 22.1496 137.305 22.1496C136.41 22.1496 135.721 22.4672 135.237 23.1023C134.777 23.7374 134.547 24.6412 134.547 25.8137V32.629C134.547 33.7038 134.269 34.5221 133.713 35.084C133.156 35.6458 132.358 35.9267 131.317 35.9267C130.277 35.9267 129.479 35.6458 128.922 35.084C128.366 34.5221 128.088 33.7038 128.088 32.629V25.1176C128.088 24.0672 127.93 23.3099 127.616 22.8458C127.301 22.3817 126.781 22.1496 126.056 22.1496C125.185 22.1496 124.507 22.4672 124.023 23.1023C123.564 23.7374 123.334 24.6412 123.334 25.8137V32.629C123.334 34.8275 122.245 35.9267 120.068 35.9267Z" fill="#0D6EFD"/>
<path d="M155.934 36C154.386 36 153.116 35.7191 152.124 35.1573C151.132 34.571 150.382 33.7038 149.874 32.5557C149.39 31.4076 149.148 29.9542 149.148 28.1954V20.5008C149.148 19.426 149.426 18.6198 149.983 18.0824C150.539 17.5206 151.337 17.2397 152.378 17.2397C153.418 17.2397 154.216 17.5206 154.773 18.0824C155.329 18.6198 155.607 19.426 155.607 20.5008V28.3786C155.607 29.258 155.789 29.9176 156.152 30.3573C156.515 30.7969 157.083 31.0168 157.857 31.0168C158.728 31.0168 159.442 30.6992 159.998 30.0641C160.555 29.429 160.833 28.5863 160.833 27.5359V20.5008C160.833 19.426 161.111 18.6198 161.668 18.0824C162.224 17.5206 163.022 17.2397 164.063 17.2397C165.103 17.2397 165.901 17.5206 166.458 18.0824C167.014 18.6198 167.292 19.426 167.292 20.5008V32.629C167.292 34.8275 166.252 35.9267 164.172 35.9267C163.156 35.9267 162.369 35.6458 161.813 35.084C161.256 34.5221 160.978 33.7038 160.978 32.629V30.5038L161.559 32.2992C161.027 33.4962 160.277 34.4122 159.309 35.0473C158.365 35.6824 157.24 36 155.934 36Z" fill="#0D6EFD"/>
<path d="M173.265 35.8901C172.467 35.8901 171.826 35.6702 171.342 35.2305C170.858 34.7908 170.604 34.229 170.58 33.545C170.58 32.8611 170.858 32.1649 171.414 31.4565L176.785 24.8611V27.7557L171.85 21.6733C171.293 20.9405 171.015 20.2443 171.015 19.5847C171.039 18.9008 171.293 18.3389 171.777 17.8992C172.261 17.4595 172.902 17.2397 173.701 17.2397C174.475 17.2397 175.104 17.374 175.588 17.6427C176.096 17.887 176.58 18.3023 177.039 18.8885L180.414 23.2855H178.164L181.539 18.8885C181.999 18.3023 182.483 17.887 182.991 17.6427C183.499 17.374 184.128 17.2397 184.878 17.2397C185.7 17.2397 186.341 17.4595 186.801 17.8992C187.285 18.3389 187.527 18.9008 187.527 19.5847C187.551 20.2687 187.273 20.9649 186.692 21.6733L181.757 27.7557V24.8611L187.164 31.4565C187.745 32.1405 188.023 32.8244 187.999 33.5084C187.974 34.1924 187.72 34.7664 187.236 35.2305C186.753 35.6702 186.099 35.8901 185.277 35.8901C184.527 35.8901 183.898 35.7679 183.39 35.5237C182.882 35.255 182.398 34.8275 181.938 34.2412L178.164 29.3679H180.378L176.567 34.2412C176.132 34.8031 175.66 35.2183 175.152 35.487C174.668 35.7557 174.039 35.8901 173.265 35.8901Z" fill="#0D6EFD"/>
</svg>
